<?xml version="1.0" encoding="utf-8" standalone="no"?>
<!DOCTYPE svg PUBLIC "-//W3C//DTD SVG 1.1//EN"
  "http://www.w3.org/Graphics/SVG/1.1/DTD/svg11.dtd">
<svg xmlns:xlink="http://www.w3.org/1999/xlink" width="1612.8pt" height="576pt" viewBox="0 0 1612.8 576" xmlns="http://www.w3.org/2000/svg" version="1.1">
 <metadata>
  <rdf:RDF xmlns:dc="http://purl.org/dc/elements/1.1/" xmlns:cc="http://creativecommons.org/ns#" xmlns:rdf="http://www.w3.org/1999/02/22-rdf-syntax-ns#">
   <cc:Work>
    <dc:type rdf:resource="http://purl.org/dc/dcmitype/StillImage"/>
    <dc:date>2026-04-06T03:22:55.247160</dc:date>
    <dc:format>image/svg+xml</dc:format>
    <dc:creator>
     <cc:Agent>
      <dc:title>Matplotlib v3.8.0, https://matplotlib.org/</dc:title>
     </cc:Agent>
    </dc:creator>
   </cc:Work>
  </rdf:RDF>
 </metadata>
 <defs>
  <style type="text/css">*{stroke-linejoin: round; stroke-linecap: butt}</style>
 </defs>
 <g id="figure_1">
  <g id="patch_1">
   <path d="M 0 576 
L 1612.8 576 
L 1612.8 0 
L 0 0 
z
" style="fill: #ffffff"/>
  </g>
  <g id="axes_1">
   <g id="patch_2">
    <path d="M 201.6 512.64 
L 1451.52 512.64 
L 1451.52 69.12 
L 201.6 69.12 
z
" style="fill: #ffffff"/>
   </g>
   <g id="matplotlib.axis_1">
    <g id="xtick_1">
     <g id="text_1">
      <!-- P-Hepato2 -->
      <g transform="translate(260.713105 562.926064) rotate(-90) scale(0.0833 -0.0833)">
       <defs>
        <path id="DejaVuSans-50" d="M 1259 4147 
L 1259 2394 
L 2053 2394 
Q 2494 2394 2734 2622 
Q 2975 2850 2975 3272 
Q 2975 3691 2734 3919 
Q 2494 4147 2053 4147 
L 1259 4147 
z
M 628 4666 
L 2053 4666 
Q 2838 4666 3239 4311 
Q 3641 3956 3641 3272 
Q 3641 2581 3239 2228 
Q 2838 1875 2053 1875 
L 1259 1875 
L 1259 0 
L 628 0 
L 628 4666 
z
" transform="scale(0.015625)"/>
        <path id="DejaVuSans-2d" d="M 313 2009 
L 1997 2009 
L 1997 1497 
L 313 1497 
L 313 2009 
z
" transform="scale(0.015625)"/>
        <path id="DejaVuSans-48" d="M 628 4666 
L 1259 4666 
L 1259 2753 
L 3553 2753 
L 3553 4666 
L 4184 4666 
L 4184 0 
L 3553 0 
L 3553 2222 
L 1259 2222 
L 1259 0 
L 628 0 
L 628 4666 
z
" transform="scale(0.015625)"/>
        <path id="DejaVuSans-65" d="M 3597 1894 
L 3597 1613 
L 953 1613 
Q 991 1019 1311 708 
Q 1631 397 2203 397 
Q 2534 397 2845 478 
Q 3156 559 3463 722 
L 3463 178 
Q 3153 47 2828 -22 
Q 2503 -91 2169 -91 
Q 1331 -91 842 396 
Q 353 884 353 1716 
Q 353 2575 817 3079 
Q 1281 3584 2069 3584 
Q 2775 3584 3186 3129 
Q 3597 2675 3597 1894 
z
M 3022 2063 
Q 3016 2534 2758 2815 
Q 2500 3097 2075 3097 
Q 1594 3097 1305 2825 
Q 1016 2553 972 2059 
L 3022 2063 
z
" transform="scale(0.015625)"/>
        <path id="DejaVuSans-70" d="M 1159 525 
L 1159 -1331 
L 581 -1331 
L 581 3500 
L 1159 3500 
L 1159 2969 
Q 1341 3281 1617 3432 
Q 1894 3584 2278 3584 
Q 2916 3584 3314 3078 
Q 3713 2572 3713 1747 
Q 3713 922 3314 415 
Q 2916 -91 2278 -91 
Q 1894 -91 1617 61 
Q 1341 213 1159 525 
z
M 3116 1747 
Q 3116 2381 2855 2742 
Q 2594 3103 2138 3103 
Q 1681 3103 1420 2742 
Q 1159 2381 1159 1747 
Q 1159 1113 1420 752 
Q 1681 391 2138 391 
Q 2594 391 2855 752 
Q 3116 1113 3116 1747 
z
" transform="scale(0.015625)"/>
        <path id="DejaVuSans-61" d="M 2194 1759 
Q 1497 1759 1228 1600 
Q 959 1441 959 1056 
Q 959 750 1161 570 
Q 1363 391 1709 391 
Q 2188 391 2477 730 
Q 2766 1069 2766 1631 
L 2766 1759 
L 2194 1759 
z
M 3341 1997 
L 3341 0 
L 2766 0 
L 2766 531 
Q 2569 213 2275 61 
Q 1981 -91 1556 -91 
Q 1019 -91 701 211 
Q 384 513 384 1019 
Q 384 1609 779 1909 
Q 1175 2209 1959 2209 
L 2766 2209 
L 2766 2266 
Q 2766 2663 2505 2880 
Q 2244 3097 1772 3097 
Q 1472 3097 1187 3025 
Q 903 2953 641 2809 
L 641 3341 
Q 956 3463 1253 3523 
Q 1550 3584 1831 3584 
Q 2591 3584 2966 3190 
Q 3341 2797 3341 1997 
z
" transform="scale(0.015625)"/>
        <path id="DejaVuSans-74" d="M 1172 4494 
L 1172 3500 
L 2356 3500 
L 2356 3053 
L 1172 3053 
L 1172 1153 
Q 1172 725 1289 603 
Q 1406 481 1766 481 
L 2356 481 
L 2356 0 
L 1766 0 
Q 1100 0 847 248 
Q 594 497 594 1153 
L 594 3053 
L 172 3053 
L 172 3500 
L 594 3500 
L 594 4494 
L 1172 4494 
z
" transform="scale(0.015625)"/>
        <path id="DejaVuSans-6f" d="M 1959 3097 
Q 1497 3097 1228 2736 
Q 959 2375 959 1747 
Q 959 1119 1226 758 
Q 1494 397 1959 397 
Q 2419 397 2687 759 
Q 2956 1122 2956 1747 
Q 2956 2369 2687 2733 
Q 2419 3097 1959 3097 
z
M 1959 3584 
Q 2709 3584 3137 3096 
Q 3566 2609 3566 1747 
Q 3566 888 3137 398 
Q 2709 -91 1959 -91 
Q 1206 -91 779 398 
Q 353 888 353 1747 
Q 353 2609 779 3096 
Q 1206 3584 1959 3584 
z
" transform="scale(0.015625)"/>
        <path id="DejaVuSans-32" d="M 1228 531 
L 3431 531 
L 3431 0 
L 469 0 
L 469 531 
Q 828 903 1448 1529 
Q 2069 2156 2228 2338 
Q 2531 2678 2651 2914 
Q 2772 3150 2772 3378 
Q 2772 3750 2511 3984 
Q 2250 4219 1831 4219 
Q 1534 4219 1204 4116 
Q 875 4013 500 3803 
L 500 4441 
Q 881 4594 1212 4672 
Q 1544 4750 1819 4750 
Q 2544 4750 2975 4387 
Q 3406 4025 3406 3419 
Q 3406 3131 3298 2873 
Q 3191 2616 2906 2266 
Q 2828 2175 2409 1742 
Q 1991 1309 1228 531 
z
" transform="scale(0.015625)"/>
       </defs>
       <use xlink:href="#DejaVuSans-50"/>
       <use xlink:href="#DejaVuSans-2d" x="58.052734"/>
       <use xlink:href="#DejaVuSans-48" x="94.136719"/>
       <use xlink:href="#DejaVuSans-65" x="169.332031"/>
       <use xlink:href="#DejaVuSans-70" x="230.855469"/>
       <use xlink:href="#DejaVuSans-61" x="294.332031"/>
       <use xlink:href="#DejaVuSans-74" x="355.611328"/>
       <use xlink:href="#DejaVuSans-6f" x="394.820312"/>
       <use xlink:href="#DejaVuSans-32" x="456.001953"/>
      </g>
     </g>
    </g>
    <g id="xtick_2">
     <g id="text_2">
      <!-- C-Hepato2 -->
      <g transform="translate(302.797953 563.907442) rotate(-90) scale(0.0833 -0.0833)">
       <defs>
        <path id="DejaVuSans-43" d="M 4122 4306 
L 4122 3641 
Q 3803 3938 3442 4084 
Q 3081 4231 2675 4231 
Q 1875 4231 1450 3742 
Q 1025 3253 1025 2328 
Q 1025 1406 1450 917 
Q 1875 428 2675 428 
Q 3081 428 3442 575 
Q 3803 722 4122 1019 
L 4122 359 
Q 3791 134 3420 21 
Q 3050 -91 2638 -91 
Q 1578 -91 968 557 
Q 359 1206 359 2328 
Q 359 3453 968 4101 
Q 1578 4750 2638 4750 
Q 3056 4750 3426 4639 
Q 3797 4528 4122 4306 
z
" transform="scale(0.015625)"/>
       </defs>
       <use xlink:href="#DejaVuSans-43"/>
       <use xlink:href="#DejaVuSans-2d" x="69.824219"/>
       <use xlink:href="#DejaVuSans-48" x="105.908203"/>
       <use xlink:href="#DejaVuSans-65" x="181.103516"/>
       <use xlink:href="#DejaVuSans-70" x="242.626953"/>
       <use xlink:href="#DejaVuSans-61" x="306.103516"/>
       <use xlink:href="#DejaVuSans-74" x="367.382812"/>
       <use xlink:href="#DejaVuSans-6f" x="406.591797"/>
       <use xlink:href="#DejaVuSans-32" x="467.773438"/>
      </g>
     </g>
    </g>
    <g id="xtick_3">
     <g id="text_3">
      <!-- Chol-Doublet -->
      <g transform="translate(344.882802 573.935981) rotate(-90) scale(0.0833 -0.0833)">
       <defs>
        <path id="DejaVuSans-68" d="M 3513 2113 
L 3513 0 
L 2938 0 
L 2938 2094 
Q 2938 2591 2744 2837 
Q 2550 3084 2163 3084 
Q 1697 3084 1428 2787 
Q 1159 2491 1159 1978 
L 1159 0 
L 581 0 
L 581 4863 
L 1159 4863 
L 1159 2956 
Q 1366 3272 1645 3428 
Q 1925 3584 2291 3584 
Q 2894 3584 3203 3211 
Q 3513 2838 3513 2113 
z
" transform="scale(0.015625)"/>
        <path id="DejaVuSans-6c" d="M 603 4863 
L 1178 4863 
L 1178 0 
L 603 0 
L 603 4863 
z
" transform="scale(0.015625)"/>
        <path id="DejaVuSans-44" d="M 1259 4147 
L 1259 519 
L 2022 519 
Q 2988 519 3436 956 
Q 3884 1394 3884 2338 
Q 3884 3275 3436 3711 
Q 2988 4147 2022 4147 
L 1259 4147 
z
M 628 4666 
L 1925 4666 
Q 3281 4666 3915 4102 
Q 4550 3538 4550 2338 
Q 4550 1131 3912 565 
Q 3275 0 1925 0 
L 628 0 
L 628 4666 
z
" transform="scale(0.015625)"/>
        <path id="DejaVuSans-75" d="M 544 1381 
L 544 3500 
L 1119 3500 
L 1119 1403 
Q 1119 906 1312 657 
Q 1506 409 1894 409 
Q 2359 409 2629 706 
Q 2900 1003 2900 1516 
L 2900 3500 
L 3475 3500 
L 3475 0 
L 2900 0 
L 2900 538 
Q 2691 219 2414 64 
Q 2138 -91 1772 -91 
Q 1169 -91 856 284 
Q 544 659 544 1381 
z
M 1991 3584 
L 1991 3584 
z
" transform="scale(0.015625)"/>
        <path id="DejaVuSans-62" d="M 3116 1747 
Q 3116 2381 2855 2742 
Q 2594 3103 2138 3103 
Q 1681 3103 1420 2742 
Q 1159 2381 1159 1747 
Q 1159 1113 1420 752 
Q 1681 391 2138 391 
Q 2594 391 2855 752 
Q 3116 1113 3116 1747 
z
M 1159 2969 
Q 1341 3281 1617 3432 
Q 1894 3584 2278 3584 
Q 2916 3584 3314 3078 
Q 3713 2572 3713 1747 
Q 3713 922 3314 415 
Q 2916 -91 2278 -91 
Q 1894 -91 1617 61 
Q 1341 213 1159 525 
L 1159 0 
L 581 0 
L 581 4863 
L 1159 4863 
L 1159 2969 
z
" transform="scale(0.015625)"/>
       </defs>
       <use xlink:href="#DejaVuSans-43"/>
       <use xlink:href="#DejaVuSans-68" x="69.824219"/>
       <use xlink:href="#DejaVuSans-6f" x="133.203125"/>
       <use xlink:href="#DejaVuSans-6c" x="194.384766"/>
       <use xlink:href="#DejaVuSans-2d" x="222.167969"/>
       <use xlink:href="#DejaVuSans-44" x="258.251953"/>
       <use xlink:href="#DejaVuSans-6f" x="335.253906"/>
       <use xlink:href="#DejaVuSans-75" x="396.435547"/>
       <use xlink:href="#DejaVuSans-62" x="459.814453"/>
       <use xlink:href="#DejaVuSans-6c" x="523.291016"/>
       <use xlink:href="#DejaVuSans-65" x="551.074219"/>
       <use xlink:href="#DejaVuSans-74" x="612.597656"/>
      </g>
     </g>
    </g>
    <g id="xtick_4">
     <g id="text_4">
      <!-- Prolif -->
      <g transform="translate(386.96765 540.411636) rotate(-90) scale(0.0833 -0.0833)">
       <defs>
        <path id="DejaVuSans-72" d="M 2631 2963 
Q 2534 3019 2420 3045 
Q 2306 3072 2169 3072 
Q 1681 3072 1420 2755 
Q 1159 2438 1159 1844 
L 1159 0 
L 581 0 
L 581 3500 
L 1159 3500 
L 1159 2956 
Q 1341 3275 1631 3429 
Q 1922 3584 2338 3584 
Q 2397 3584 2469 3576 
Q 2541 3569 2628 3553 
L 2631 2963 
z
" transform="scale(0.015625)"/>
        <path id="DejaVuSans-69" d="M 603 3500 
L 1178 3500 
L 1178 0 
L 603 0 
L 603 3500 
z
M 603 4863 
L 1178 4863 
L 1178 4134 
L 603 4134 
L 603 4863 
z
" transform="scale(0.015625)"/>
        <path id="DejaVuSans-66" d="M 2375 4863 
L 2375 4384 
L 1825 4384 
Q 1516 4384 1395 4259 
Q 1275 4134 1275 3809 
L 1275 3500 
L 2222 3500 
L 2222 3053 
L 1275 3053 
L 1275 0 
L 697 0 
L 697 3053 
L 147 3053 
L 147 3500 
L 697 3500 
L 697 3744 
Q 697 4328 969 4595 
Q 1241 4863 1831 4863 
L 2375 4863 
z
" transform="scale(0.015625)"/>
       </defs>
       <use xlink:href="#DejaVuSans-50"/>
       <use xlink:href="#DejaVuSans-72" x="58.552734"/>
       <use xlink:href="#DejaVuSans-6f" x="97.416016"/>
       <use xlink:href="#DejaVuSans-6c" x="158.597656"/>
       <use xlink:href="#DejaVuSans-69" x="186.380859"/>
       <use xlink:href="#DejaVuSans-66" x="214.164062"/>
      </g>
     </g>
    </g>
    <g id="xtick_5">
     <g id="text_5">
      <!-- I-Hepato -->
      <g transform="translate(429.052499 555.248147) rotate(-90) scale(0.0833 -0.0833)">
       <defs>
        <path id="DejaVuSans-49" d="M 628 4666 
L 1259 4666 
L 1259 0 
L 628 0 
L 628 4666 
z
" transform="scale(0.015625)"/>
       </defs>
       <use xlink:href="#DejaVuSans-49"/>
       <use xlink:href="#DejaVuSans-2d" x="29.492188"/>
       <use xlink:href="#DejaVuSans-48" x="65.576172"/>
       <use xlink:href="#DejaVuSans-65" x="140.771484"/>
       <use xlink:href="#DejaVuSans-70" x="202.294922"/>
       <use xlink:href="#DejaVuSans-61" x="265.771484"/>
       <use xlink:href="#DejaVuSans-74" x="327.050781"/>
       <use xlink:href="#DejaVuSans-6f" x="366.259766"/>
      </g>
     </g>
    </g>
    <g id="xtick_6">
     <g id="text_6">
      <!-- P-Hepato -->
      <g transform="translate(471.137347 557.626102) rotate(-90) scale(0.0833 -0.0833)">
       <use xlink:href="#DejaVuSans-50"/>
       <use xlink:href="#DejaVuSans-2d" x="58.052734"/>
       <use xlink:href="#DejaVuSans-48" x="94.136719"/>
       <use xlink:href="#DejaVuSans-65" x="169.332031"/>
       <use xlink:href="#DejaVuSans-70" x="230.855469"/>
       <use xlink:href="#DejaVuSans-61" x="294.332031"/>
       <use xlink:href="#DejaVuSans-74" x="355.611328"/>
       <use xlink:href="#DejaVuSans-6f" x="394.820312"/>
      </g>
     </g>
    </g>
    <g id="xtick_7">
     <g id="text_7">
      <!-- Hepato-Doublet -->
      <g transform="translate(513.222196 585.730741) rotate(-90) scale(0.0833 -0.0833)">
       <use xlink:href="#DejaVuSans-48"/>
       <use xlink:href="#DejaVuSans-65" x="75.195312"/>
       <use xlink:href="#DejaVuSans-70" x="136.71875"/>
       <use xlink:href="#DejaVuSans-61" x="200.195312"/>
       <use xlink:href="#DejaVuSans-74" x="261.474609"/>
       <use xlink:href="#DejaVuSans-6f" x="300.683594"/>
       <use xlink:href="#DejaVuSans-2d" x="363.740234"/>
       <use xlink:href="#DejaVuSans-44" x="399.824219"/>
       <use xlink:href="#DejaVuSans-6f" x="476.826172"/>
       <use xlink:href="#DejaVuSans-75" x="538.007812"/>
       <use xlink:href="#DejaVuSans-62" x="601.386719"/>
       <use xlink:href="#DejaVuSans-6c" x="664.863281"/>
       <use xlink:href="#DejaVuSans-65" x="692.646484"/>
       <use xlink:href="#DejaVuSans-74" x="754.169922"/>
      </g>
     </g>
    </g>
    <g id="xtick_8">
     <g id="text_8">
      <!-- C-Hepato -->
      <g transform="translate(555.307044 558.60748) rotate(-90) scale(0.0833 -0.0833)">
       <use xlink:href="#DejaVuSans-43"/>
       <use xlink:href="#DejaVuSans-2d" x="69.824219"/>
       <use xlink:href="#DejaVuSans-48" x="105.908203"/>
       <use xlink:href="#DejaVuSans-65" x="181.103516"/>
       <use xlink:href="#DejaVuSans-70" x="242.626953"/>
       <use xlink:href="#DejaVuSans-61" x="306.103516"/>
       <use xlink:href="#DejaVuSans-74" x="367.382812"/>
       <use xlink:href="#DejaVuSans-6f" x="406.591797"/>
      </g>
     </g>
    </g>
    <g id="xtick_9">
     <g id="text_9">
      <!-- Tcell-Doublet -->
      <g transform="translate(597.391893 573.43488) rotate(-90) scale(0.0833 -0.0833)">
       <defs>
        <path id="DejaVuSans-54" d="M -19 4666 
L 3928 4666 
L 3928 4134 
L 2272 4134 
L 2272 0 
L 1638 0 
L 1638 4134 
L -19 4134 
L -19 4666 
z
" transform="scale(0.015625)"/>
        <path id="DejaVuSans-63" d="M 3122 3366 
L 3122 2828 
Q 2878 2963 2633 3030 
Q 2388 3097 2138 3097 
Q 1578 3097 1268 2742 
Q 959 2388 959 1747 
Q 959 1106 1268 751 
Q 1578 397 2138 397 
Q 2388 397 2633 464 
Q 2878 531 3122 666 
L 3122 134 
Q 2881 22 2623 -34 
Q 2366 -91 2075 -91 
Q 1284 -91 818 406 
Q 353 903 353 1747 
Q 353 2603 823 3093 
Q 1294 3584 2113 3584 
Q 2378 3584 2631 3529 
Q 2884 3475 3122 3366 
z
" transform="scale(0.015625)"/>
       </defs>
       <use xlink:href="#DejaVuSans-54"/>
       <use xlink:href="#DejaVuSans-63" x="44.083984"/>
       <use xlink:href="#DejaVuSans-65" x="99.064453"/>
       <use xlink:href="#DejaVuSans-6c" x="160.587891"/>
       <use xlink:href="#DejaVuSans-6c" x="188.371094"/>
       <use xlink:href="#DejaVuSans-2d" x="216.154297"/>
       <use xlink:href="#DejaVuSans-44" x="252.238281"/>
       <use xlink:href="#DejaVuSans-6f" x="329.240234"/>
       <use xlink:href="#DejaVuSans-75" x="390.421875"/>
       <use xlink:href="#DejaVuSans-62" x="453.800781"/>
       <use xlink:href="#DejaVuSans-6c" x="517.277344"/>
       <use xlink:href="#DejaVuSans-65" x="545.060547"/>
       <use xlink:href="#DejaVuSans-74" x="606.583984"/>
      </g>
     </g>
    </g>
    <g id="xtick_10">
     <g id="text_10">
      <!-- Kupffer-Doublet -->
      <g transform="translate(639.476741 584.926375) rotate(-90) scale(0.0833 -0.0833)">
       <defs>
        <path id="DejaVuSans-4b" d="M 628 4666 
L 1259 4666 
L 1259 2694 
L 3353 4666 
L 4166 4666 
L 1850 2491 
L 4331 0 
L 3500 0 
L 1259 2247 
L 1259 0 
L 628 0 
L 628 4666 
z
" transform="scale(0.015625)"/>
       </defs>
       <use xlink:href="#DejaVuSans-4b"/>
       <use xlink:href="#DejaVuSans-75" x="60.576172"/>
       <use xlink:href="#DejaVuSans-70" x="123.955078"/>
       <use xlink:href="#DejaVuSans-66" x="187.431641"/>
       <use xlink:href="#DejaVuSans-66" x="222.636719"/>
       <use xlink:href="#DejaVuSans-65" x="257.841797"/>
       <use xlink:href="#DejaVuSans-72" x="319.365234"/>
       <use xlink:href="#DejaVuSans-2d" x="354.103516"/>
       <use xlink:href="#DejaVuSans-44" x="390.1875"/>
       <use xlink:href="#DejaVuSans-6f" x="467.189453"/>
       <use xlink:href="#DejaVuSans-75" x="528.371094"/>
       <use xlink:href="#DejaVuSans-62" x="591.75"/>
       <use xlink:href="#DejaVuSans-6c" x="655.226562"/>
       <use xlink:href="#DejaVuSans-65" x="683.009766"/>
       <use xlink:href="#DejaVuSans-74" x="744.533203"/>
      </g>
     </g>
    </g>
    <g id="xtick_11">
     <g id="text_11">
      <!-- Stellate-Doublet -->
      <g transform="translate(681.56159 587.232744) rotate(-90) scale(0.0833 -0.0833)">
       <defs>
        <path id="DejaVuSans-53" d="M 3425 4513 
L 3425 3897 
Q 3066 4069 2747 4153 
Q 2428 4238 2131 4238 
Q 1616 4238 1336 4038 
Q 1056 3838 1056 3469 
Q 1056 3159 1242 3001 
Q 1428 2844 1947 2747 
L 2328 2669 
Q 3034 2534 3370 2195 
Q 3706 1856 3706 1288 
Q 3706 609 3251 259 
Q 2797 -91 1919 -91 
Q 1588 -91 1214 -16 
Q 841 59 441 206 
L 441 856 
Q 825 641 1194 531 
Q 1563 422 1919 422 
Q 2459 422 2753 634 
Q 3047 847 3047 1241 
Q 3047 1584 2836 1778 
Q 2625 1972 2144 2069 
L 1759 2144 
Q 1053 2284 737 2584 
Q 422 2884 422 3419 
Q 422 4038 858 4394 
Q 1294 4750 2059 4750 
Q 2388 4750 2728 4690 
Q 3069 4631 3425 4513 
z
" transform="scale(0.015625)"/>
       </defs>
       <use xlink:href="#DejaVuSans-53"/>
       <use xlink:href="#DejaVuSans-74" x="63.476562"/>
       <use xlink:href="#DejaVuSans-65" x="102.685547"/>
       <use xlink:href="#DejaVuSans-6c" x="164.208984"/>
       <use xlink:href="#DejaVuSans-6c" x="191.992188"/>
       <use xlink:href="#DejaVuSans-61" x="219.775391"/>
       <use xlink:href="#DejaVuSans-74" x="281.054688"/>
       <use xlink:href="#DejaVuSans-65" x="320.263672"/>
       <use xlink:href="#DejaVuSans-2d" x="381.787109"/>
       <use xlink:href="#DejaVuSans-44" x="417.871094"/>
       <use xlink:href="#DejaVuSans-6f" x="494.873047"/>
       <use xlink:href="#DejaVuSans-75" x="556.054688"/>
       <use xlink:href="#DejaVuSans-62" x="619.433594"/>
       <use xlink:href="#DejaVuSans-6c" x="682.910156"/>
       <use xlink:href="#DejaVuSans-65" x="710.693359"/>
       <use xlink:href="#DejaVuSans-74" x="772.216797"/>
      </g>
     </g>
    </g>
    <g id="xtick_12">
     <g id="text_12">
      <!-- cvLSEC-Doublet -->
      <g transform="translate(723.646438 585.949403) rotate(-90) scale(0.0833 -0.0833)">
       <defs>
        <path id="DejaVuSans-76" d="M 191 3500 
L 800 3500 
L 1894 563 
L 2988 3500 
L 3597 3500 
L 2284 0 
L 1503 0 
L 191 3500 
z
" transform="scale(0.015625)"/>
        <path id="DejaVuSans-4c" d="M 628 4666 
L 1259 4666 
L 1259 531 
L 3531 531 
L 3531 0 
L 628 0 
L 628 4666 
z
" transform="scale(0.015625)"/>
        <path id="DejaVuSans-45" d="M 628 4666 
L 3578 4666 
L 3578 4134 
L 1259 4134 
L 1259 2753 
L 3481 2753 
L 3481 2222 
L 1259 2222 
L 1259 531 
L 3634 531 
L 3634 0 
L 628 0 
L 628 4666 
z
" transform="scale(0.015625)"/>
       </defs>
       <use xlink:href="#DejaVuSans-63"/>
       <use xlink:href="#DejaVuSans-76" x="54.980469"/>
       <use xlink:href="#DejaVuSans-4c" x="114.160156"/>
       <use xlink:href="#DejaVuSans-53" x="169.873047"/>
       <use xlink:href="#DejaVuSans-45" x="233.349609"/>
       <use xlink:href="#DejaVuSans-43" x="296.533203"/>
       <use xlink:href="#DejaVuSans-2d" x="366.357422"/>
       <use xlink:href="#DejaVuSans-44" x="402.441406"/>
       <use xlink:href="#DejaVuSans-6f" x="479.443359"/>
       <use xlink:href="#DejaVuSans-75" x="540.625"/>
       <use xlink:href="#DejaVuSans-62" x="604.003906"/>
       <use xlink:href="#DejaVuSans-6c" x="667.480469"/>
       <use xlink:href="#DejaVuSans-65" x="695.263672"/>
       <use xlink:href="#DejaVuSans-74" x="756.787109"/>
      </g>
     </g>
    </g>
    <g id="xtick_13">
     <g id="text_13">
      <!-- CholMucus -->
      <g transform="translate(765.731287 564.812028) rotate(-90) scale(0.0833 -0.0833)">
       <defs>
        <path id="DejaVuSans-4d" d="M 628 4666 
L 1569 4666 
L 2759 1491 
L 3956 4666 
L 4897 4666 
L 4897 0 
L 4281 0 
L 4281 4097 
L 3078 897 
L 2444 897 
L 1241 4097 
L 1241 0 
L 628 0 
L 628 4666 
z
" transform="scale(0.015625)"/>
        <path id="DejaVuSans-73" d="M 2834 3397 
L 2834 2853 
Q 2591 2978 2328 3040 
Q 2066 3103 1784 3103 
Q 1356 3103 1142 2972 
Q 928 2841 928 2578 
Q 928 2378 1081 2264 
Q 1234 2150 1697 2047 
L 1894 2003 
Q 2506 1872 2764 1633 
Q 3022 1394 3022 966 
Q 3022 478 2636 193 
Q 2250 -91 1575 -91 
Q 1294 -91 989 -36 
Q 684 19 347 128 
L 347 722 
Q 666 556 975 473 
Q 1284 391 1588 391 
Q 1994 391 2212 530 
Q 2431 669 2431 922 
Q 2431 1156 2273 1281 
Q 2116 1406 1581 1522 
L 1381 1569 
Q 847 1681 609 1914 
Q 372 2147 372 2553 
Q 372 3047 722 3315 
Q 1072 3584 1716 3584 
Q 2034 3584 2315 3537 
Q 2597 3491 2834 3397 
z
" transform="scale(0.015625)"/>
       </defs>
       <use xlink:href="#DejaVuSans-43"/>
       <use xlink:href="#DejaVuSans-68" x="69.824219"/>
       <use xlink:href="#DejaVuSans-6f" x="133.203125"/>
       <use xlink:href="#DejaVuSans-6c" x="194.384766"/>
       <use xlink:href="#DejaVuSans-4d" x="222.167969"/>
       <use xlink:href="#DejaVuSans-75" x="308.447266"/>
       <use xlink:href="#DejaVuSans-63" x="371.826172"/>
       <use xlink:href="#DejaVuSans-75" x="426.806641"/>
       <use xlink:href="#DejaVuSans-73" x="490.185547"/>
      </g>
     </g>
    </g>
    <g id="xtick_14">
     <g id="text_14">
      <!-- Chol -->
      <g transform="translate(807.816135 538.146917) rotate(-90) scale(0.0833 -0.0833)">
       <use xlink:href="#DejaVuSans-43"/>
       <use xlink:href="#DejaVuSans-68" x="69.824219"/>
       <use xlink:href="#DejaVuSans-6f" x="133.203125"/>
       <use xlink:href="#DejaVuSans-6c" x="194.384766"/>
      </g>
     </g>
    </g>
    <g id="xtick_15">
     <g id="text_15">
      <!-- Chol- -Stellate-Doublet -->
      <g transform="translate(849.900984 611.750277) rotate(-90) scale(0.0833 -0.0833)">
       <use xlink:href="#DejaVuSans-43"/>
       <use xlink:href="#DejaVuSans-68" x="69.824219"/>
       <use xlink:href="#DejaVuSans-6f" x="133.203125"/>
       <use xlink:href="#DejaVuSans-6c" x="194.384766"/>
       <use xlink:href="#DejaVuSans-2d" x="222.167969"/>
       <use xlink:href="#DejaVuSans-2d" x="258.251953"/>
       <use xlink:href="#DejaVuSans-53" x="294.335938"/>
       <use xlink:href="#DejaVuSans-74" x="357.8125"/>
       <use xlink:href="#DejaVuSans-65" x="397.021484"/>
       <use xlink:href="#DejaVuSans-6c" x="458.544922"/>
       <use xlink:href="#DejaVuSans-6c" x="486.328125"/>
       <use xlink:href="#DejaVuSans-61" x="514.111328"/>
       <use xlink:href="#DejaVuSans-74" x="575.390625"/>
       <use xlink:href="#DejaVuSans-65" x="614.599609"/>
       <use xlink:href="#DejaVuSans-2d" x="676.123047"/>
       <use xlink:href="#DejaVuSans-44" x="712.207031"/>
       <use xlink:href="#DejaVuSans-6f" x="789.208984"/>
       <use xlink:href="#DejaVuSans-75" x="850.390625"/>
       <use xlink:href="#DejaVuSans-62" x="913.769531"/>
       <use xlink:href="#DejaVuSans-6c" x="977.246094"/>
       <use xlink:href="#DejaVuSans-65" x="1005.029297"/>
       <use xlink:href="#DejaVuSans-74" x="1066.552734"/>
      </g>
     </g>
    </g>
    <g id="xtick_16">
     <g id="text_16">
      <!-- aStellate -->
      <g transform="translate(891.985832 556.548408) rotate(-90) scale(0.0833 -0.0833)">
       <use xlink:href="#DejaVuSans-61"/>
       <use xlink:href="#DejaVuSans-53" x="61.279297"/>
       <use xlink:href="#DejaVuSans-74" x="124.755859"/>
       <use xlink:href="#DejaVuSans-65" x="163.964844"/>
       <use xlink:href="#DejaVuSans-6c" x="225.488281"/>
       <use xlink:href="#DejaVuSans-6c" x="253.271484"/>
       <use xlink:href="#DejaVuSans-61" x="281.054688"/>
       <use xlink:href="#DejaVuSans-74" x="342.333984"/>
       <use xlink:href="#DejaVuSans-65" x="381.542969"/>
      </g>
     </g>
    </g>
    <g id="xtick_17">
     <g id="text_17">
      <!-- Stellate -->
      <g transform="translate(934.070681 551.44368) rotate(-90) scale(0.0833 -0.0833)">
       <use xlink:href="#DejaVuSans-53"/>
       <use xlink:href="#DejaVuSans-74" x="63.476562"/>
       <use xlink:href="#DejaVuSans-65" x="102.685547"/>
       <use xlink:href="#DejaVuSans-6c" x="164.208984"/>
       <use xlink:href="#DejaVuSans-6c" x="191.992188"/>
       <use xlink:href="#DejaVuSans-61" x="219.775391"/>
       <use xlink:href="#DejaVuSans-74" x="281.054688"/>
       <use xlink:href="#DejaVuSans-65" x="320.263672"/>
      </g>
     </g>
    </g>
    <g id="xtick_18">
     <g id="text_18">
      <!-- Fibroblast -->
      <g transform="translate(976.155529 560.075642) rotate(-90) scale(0.0833 -0.0833)">
       <defs>
        <path id="DejaVuSans-46" d="M 628 4666 
L 3309 4666 
L 3309 4134 
L 1259 4134 
L 1259 2759 
L 3109 2759 
L 3109 2228 
L 1259 2228 
L 1259 0 
L 628 0 
L 628 4666 
z
" transform="scale(0.015625)"/>
       </defs>
       <use xlink:href="#DejaVuSans-46"/>
       <use xlink:href="#DejaVuSans-69" x="50.269531"/>
       <use xlink:href="#DejaVuSans-62" x="78.052734"/>
       <use xlink:href="#DejaVuSans-72" x="141.529297"/>
       <use xlink:href="#DejaVuSans-6f" x="180.392578"/>
       <use xlink:href="#DejaVuSans-62" x="241.574219"/>
       <use xlink:href="#DejaVuSans-6c" x="305.050781"/>
       <use xlink:href="#DejaVuSans-61" x="332.833984"/>
       <use xlink:href="#DejaVuSans-73" x="394.113281"/>
       <use xlink:href="#DejaVuSans-74" x="446.212891"/>
      </g>
     </g>
    </g>
    <g id="xtick_19">
     <g id="text_19">
      <!-- VSMC -->
      <g transform="translate(1018.240378 543.6304) rotate(-90) scale(0.0833 -0.0833)">
       <defs>
        <path id="DejaVuSans-56" d="M 1831 0 
L 50 4666 
L 709 4666 
L 2188 738 
L 3669 4666 
L 4325 4666 
L 2547 0 
L 1831 0 
z
" transform="scale(0.015625)"/>
       </defs>
       <use xlink:href="#DejaVuSans-56"/>
       <use xlink:href="#DejaVuSans-53" x="68.408203"/>
       <use xlink:href="#DejaVuSans-4d" x="131.884766"/>
       <use xlink:href="#DejaVuSans-43" x="218.164062"/>
      </g>
     </g>
    </g>
    <g id="xtick_20">
     <g id="text_20">
      <!-- ppLSEC -->
      <g transform="translate(1060.325226 551.226319) rotate(-90) scale(0.0833 -0.0833)">
       <use xlink:href="#DejaVuSans-70"/>
       <use xlink:href="#DejaVuSans-70" x="63.476562"/>
       <use xlink:href="#DejaVuSans-4c" x="126.953125"/>
       <use xlink:href="#DejaVuSans-53" x="182.666016"/>
       <use xlink:href="#DejaVuSans-45" x="246.142578"/>
       <use xlink:href="#DejaVuSans-43" x="309.326172"/>
      </g>
     </g>
    </g>
    <g id="xtick_21">
     <g id="text_21">
      <!-- cvEndo -->
      <g transform="translate(1102.410075 550.078341) rotate(-90) scale(0.0833 -0.0833)">
       <defs>
        <path id="DejaVuSans-6e" d="M 3513 2113 
L 3513 0 
L 2938 0 
L 2938 2094 
Q 2938 2591 2744 2837 
Q 2550 3084 2163 3084 
Q 1697 3084 1428 2787 
Q 1159 2491 1159 1978 
L 1159 0 
L 581 0 
L 581 3500 
L 1159 3500 
L 1159 2956 
Q 1366 3272 1645 3428 
Q 1925 3584 2291 3584 
Q 2894 3584 3203 3211 
Q 3513 2838 3513 2113 
z
" transform="scale(0.015625)"/>
        <path id="DejaVuSans-64" d="M 2906 2969 
L 2906 4863 
L 3481 4863 
L 3481 0 
L 2906 0 
L 2906 525 
Q 2725 213 2448 61 
Q 2172 -91 1784 -91 
Q 1150 -91 751 415 
Q 353 922 353 1747 
Q 353 2572 751 3078 
Q 1150 3584 1784 3584 
Q 2172 3584 2448 3432 
Q 2725 3281 2906 2969 
z
M 947 1747 
Q 947 1113 1208 752 
Q 1469 391 1925 391 
Q 2381 391 2643 752 
Q 2906 1113 2906 1747 
Q 2906 2381 2643 2742 
Q 2381 3103 1925 3103 
Q 1469 3103 1208 2742 
Q 947 2381 947 1747 
z
" transform="scale(0.015625)"/>
       </defs>
       <use xlink:href="#DejaVuSans-63"/>
       <use xlink:href="#DejaVuSans-76" x="54.980469"/>
       <use xlink:href="#DejaVuSans-45" x="114.160156"/>
       <use xlink:href="#DejaVuSans-6e" x="177.34375"/>
       <use xlink:href="#DejaVuSans-64" x="240.722656"/>
       <use xlink:href="#DejaVuSans-6f" x="304.199219"/>
      </g>
     </g>
    </g>
    <g id="xtick_22">
     <g id="text_22">
      <!-- cvLSEC -->
      <g transform="translate(1144.494923 550.160339) rotate(-90) scale(0.0833 -0.0833)">
       <use xlink:href="#DejaVuSans-63"/>
       <use xlink:href="#DejaVuSans-76" x="54.980469"/>
       <use xlink:href="#DejaVuSans-4c" x="114.160156"/>
       <use xlink:href="#DejaVuSans-53" x="169.873047"/>
       <use xlink:href="#DejaVuSans-45" x="233.349609"/>
       <use xlink:href="#DejaVuSans-43" x="296.533203"/>
      </g>
     </g>
    </g>
    <g id="xtick_23">
     <g id="text_23">
      <!-- cvLSEC- -Mac -->
      <g transform="translate(1186.579771 573.043109) rotate(-90) scale(0.0833 -0.0833)">
       <use xlink:href="#DejaVuSans-63"/>
       <use xlink:href="#DejaVuSans-76" x="54.980469"/>
       <use xlink:href="#DejaVuSans-4c" x="114.160156"/>
       <use xlink:href="#DejaVuSans-53" x="169.873047"/>
       <use xlink:href="#DejaVuSans-45" x="233.349609"/>
       <use xlink:href="#DejaVuSans-43" x="296.533203"/>
       <use xlink:href="#DejaVuSans-2d" x="366.357422"/>
       <use xlink:href="#DejaVuSans-2d" x="402.441406"/>
       <use xlink:href="#DejaVuSans-4d" x="438.525391"/>
       <use xlink:href="#DejaVuSans-61" x="524.804688"/>
       <use xlink:href="#DejaVuSans-63" x="586.083984"/>
      </g>
     </g>
    </g>
    <g id="xtick_24">
     <g id="text_24">
      <!-- Kupffer -->
      <g transform="translate(1228.66462 549.668348) rotate(-90) scale(0.0833 -0.0833)">
       <use xlink:href="#DejaVuSans-4b"/>
       <use xlink:href="#DejaVuSans-75" x="60.576172"/>
       <use xlink:href="#DejaVuSans-70" x="123.955078"/>
       <use xlink:href="#DejaVuSans-66" x="187.431641"/>
       <use xlink:href="#DejaVuSans-66" x="222.636719"/>
       <use xlink:href="#DejaVuSans-65" x="257.841797"/>
       <use xlink:href="#DejaVuSans-72" x="319.365234"/>
      </g>
     </g>
    </g>
    <g id="xtick_25">
     <g id="text_25">
      <!-- Monocyte -->
      <g transform="translate(1270.749468 560.201894) rotate(-90) scale(0.0833 -0.0833)">
       <defs>
        <path id="DejaVuSans-79" d="M 2059 -325 
Q 1816 -950 1584 -1140 
Q 1353 -1331 966 -1331 
L 506 -1331 
L 506 -850 
L 844 -850 
Q 1081 -850 1212 -737 
Q 1344 -625 1503 -206 
L 1606 56 
L 191 3500 
L 800 3500 
L 1894 763 
L 2988 3500 
L 3597 3500 
L 2059 -325 
z
" transform="scale(0.015625)"/>
       </defs>
       <use xlink:href="#DejaVuSans-4d"/>
       <use xlink:href="#DejaVuSans-6f" x="86.279297"/>
       <use xlink:href="#DejaVuSans-6e" x="147.460938"/>
       <use xlink:href="#DejaVuSans-6f" x="210.839844"/>
       <use xlink:href="#DejaVuSans-63" x="272.021484"/>
       <use xlink:href="#DejaVuSans-79" x="327.001953"/>
       <use xlink:href="#DejaVuSans-74" x="386.181641"/>
       <use xlink:href="#DejaVuSans-65" x="425.390625"/>
      </g>
     </g>
    </g>
    <g id="xtick_26">
     <g id="text_26">
      <!-- AntiB -->
      <g transform="translate(1312.834317 541.912338) rotate(-90) scale(0.0833 -0.0833)">
       <defs>
        <path id="DejaVuSans-41" d="M 2188 4044 
L 1331 1722 
L 3047 1722 
L 2188 4044 
z
M 1831 4666 
L 2547 4666 
L 4325 0 
L 3669 0 
L 3244 1197 
L 1141 1197 
L 716 0 
L 50 0 
L 1831 4666 
z
" transform="scale(0.015625)"/>
        <path id="DejaVuSans-42" d="M 1259 2228 
L 1259 519 
L 2272 519 
Q 2781 519 3026 730 
Q 3272 941 3272 1375 
Q 3272 1813 3026 2020 
Q 2781 2228 2272 2228 
L 1259 2228 
z
M 1259 4147 
L 1259 2741 
L 2194 2741 
Q 2656 2741 2882 2914 
Q 3109 3088 3109 3444 
Q 3109 3797 2882 3972 
Q 2656 4147 2194 4147 
L 1259 4147 
z
M 628 4666 
L 2241 4666 
Q 2963 4666 3353 4366 
Q 3744 4066 3744 3513 
Q 3744 3084 3544 2831 
Q 3344 2578 2956 2516 
Q 3422 2416 3680 2098 
Q 3938 1781 3938 1306 
Q 3938 681 3513 340 
Q 3088 0 2303 0 
L 628 0 
L 628 4666 
z
" transform="scale(0.015625)"/>
       </defs>
       <use xlink:href="#DejaVuSans-41"/>
       <use xlink:href="#DejaVuSans-6e" x="68.408203"/>
       <use xlink:href="#DejaVuSans-74" x="131.787109"/>
       <use xlink:href="#DejaVuSans-69" x="170.996094"/>
       <use xlink:href="#DejaVuSans-42" x="198.779297"/>
      </g>
     </g>
    </g>
    <g id="xtick_27">
     <g id="text_27">
      <!-- CD4T -->
      <g transform="translate(1354.919165 542.258553) rotate(-90) scale(0.0833 -0.0833)">
       <defs>
        <path id="DejaVuSans-34" d="M 2419 4116 
L 825 1625 
L 2419 1625 
L 2419 4116 
z
M 2253 4666 
L 3047 4666 
L 3047 1625 
L 3713 1625 
L 3713 1100 
L 3047 1100 
L 3047 0 
L 2419 0 
L 2419 1100 
L 313 1100 
L 313 1709 
L 2253 4666 
z
" transform="scale(0.015625)"/>
       </defs>
       <use xlink:href="#DejaVuSans-43"/>
       <use xlink:href="#DejaVuSans-44" x="69.824219"/>
       <use xlink:href="#DejaVuSans-34" x="146.826172"/>
       <use xlink:href="#DejaVuSans-54" x="210.449219"/>
      </g>
     </g>
    </g>
    <g id="xtick_28">
     <g id="text_28">
      <!-- lrNK -->
      <g transform="translate(1397.004014 537.073128) rotate(-90) scale(0.0833 -0.0833)">
       <defs>
        <path id="DejaVuSans-4e" d="M 628 4666 
L 1478 4666 
L 3547 763 
L 3547 4666 
L 4159 4666 
L 4159 0 
L 3309 0 
L 1241 3903 
L 1241 0 
L 628 0 
L 628 4666 
z
" transform="scale(0.015625)"/>
       </defs>
       <use xlink:href="#DejaVuSans-6c"/>
       <use xlink:href="#DejaVuSans-72" x="27.783203"/>
       <use xlink:href="#DejaVuSans-4e" x="68.896484"/>
       <use xlink:href="#DejaVuSans-4b" x="143.701172"/>
      </g>
     </g>
    </g>
   </g>
   <g id="matplotlib.axis_2">
    <g id="ytick_1"/>
    <g id="ytick_2"/>
    <g id="ytick_3"/>
    <g id="ytick_4"/>
    <g id="ytick_5"/>
    <g id="ytick_6"/>
    <g id="ytick_7"/>
    <g id="ytick_8"/>
   </g>
   <g id="line2d_1">
    <path d="M 258.414545 492.48 
L 258.414545 458.10674 
L 300.499394 458.10674 
L 300.499394 492.48 
" clip-path="url(#p5975b6244e)" style="fill: none; stroke: #555555; stroke-width: 1.5; stroke-linecap: square"/>
   </g>
   <g id="line2d_2">
    <path d="M 384.669091 492.48 
L 384.669091 453.549052 
L 426.753939 453.549052 
L 426.753939 492.48 
" clip-path="url(#p5975b6244e)" style="fill: none; stroke: #555555; stroke-width: 1.5; stroke-linecap: square"/>
   </g>
   <g id="line2d_3">
    <path d="M 468.838788 492.48 
L 468.838788 481.826824 
L 510.923636 481.826824 
L 510.923636 492.48 
" clip-path="url(#p5975b6244e)" style="fill: none; stroke: #555555; stroke-width: 1.5; stroke-linecap: square"/>
   </g>
   <g id="line2d_4">
    <path d="M 489.881212 481.826824 
L 489.881212 470.633897 
L 553.008485 470.633897 
L 553.008485 492.48 
" clip-path="url(#p5975b6244e)" style="fill: none; stroke: #555555; stroke-width: 1.5; stroke-linecap: square"/>
   </g>
   <g id="line2d_5">
    <path d="M 595.093333 492.48 
L 595.093333 445.291422 
L 637.178182 445.291422 
L 637.178182 492.48 
" clip-path="url(#p5975b6244e)" style="fill: none; stroke: #555555; stroke-width: 1.5; stroke-linecap: square"/>
   </g>
   <g id="line2d_6">
    <path d="M 521.444848 470.633897 
L 521.444848 426.864675 
L 616.135758 426.864675 
L 616.135758 445.291422 
" clip-path="url(#p5975b6244e)" style="fill: none; stroke: #555555; stroke-width: 1.5; stroke-linecap: square"/>
   </g>
   <g id="line2d_7">
    <path d="M 405.711515 453.549052 
L 405.711515 409.143021 
L 568.790303 409.143021 
L 568.790303 426.864675 
" clip-path="url(#p5975b6244e)" style="fill: none; stroke: #555555; stroke-width: 1.5; stroke-linecap: square"/>
   </g>
   <g id="line2d_8">
    <path d="M 342.584242 492.48 
L 342.584242 387.912191 
L 487.250909 387.912191 
L 487.250909 409.143021 
" clip-path="url(#p5975b6244e)" style="fill: none; stroke: #555555; stroke-width: 1.5; stroke-linecap: square"/>
   </g>
   <g id="line2d_9">
    <path d="M 679.26303 492.48 
L 679.26303 400.245609 
L 721.347879 400.245609 
L 721.347879 492.48 
" clip-path="url(#p5975b6244e)" style="fill: none; stroke: #555555; stroke-width: 1.5; stroke-linecap: square"/>
   </g>
   <g id="line2d_10">
    <path d="M 414.917576 387.912191 
L 414.917576 348.105595 
L 700.305455 348.105595 
L 700.305455 400.245609 
" clip-path="url(#p5975b6244e)" style="fill: none; stroke: #555555; stroke-width: 1.5; stroke-linecap: square"/>
   </g>
   <g id="line2d_11">
    <path d="M 279.45697 458.10674 
L 279.45697 313.969504 
L 557.611515 313.969504 
L 557.611515 348.105595 
" clip-path="url(#p5975b6244e)" style="fill: none; stroke: #555555; stroke-width: 1.5; stroke-linecap: square"/>
   </g>
   <g id="line2d_12">
    <path d="M 763.432727 492.48 
L 763.432727 473.639781 
L 805.517576 473.639781 
L 805.517576 492.48 
" clip-path="url(#p5975b6244e)" style="fill: none; stroke: #555555; stroke-width: 1.5; stroke-linecap: square"/>
   </g>
   <g id="line2d_13">
    <path d="M 889.687273 492.48 
L 889.687273 467.484233 
L 931.772121 467.484233 
L 931.772121 492.48 
" clip-path="url(#p5975b6244e)" style="fill: none; stroke: #555555; stroke-width: 1.5; stroke-linecap: square"/>
   </g>
   <g id="line2d_14">
    <path d="M 847.602424 492.48 
L 847.602424 441.854726 
L 910.729697 441.854726 
L 910.729697 467.484233 
" clip-path="url(#p5975b6244e)" style="fill: none; stroke: #555555; stroke-width: 1.5; stroke-linecap: square"/>
   </g>
   <g id="line2d_15">
    <path d="M 879.166061 441.854726 
L 879.166061 375.538086 
L 973.85697 375.538086 
L 973.85697 492.48 
" clip-path="url(#p5975b6244e)" style="fill: none; stroke: #555555; stroke-width: 1.5; stroke-linecap: square"/>
   </g>
   <g id="line2d_16">
    <path d="M 784.475152 473.639781 
L 784.475152 291.162498 
L 926.511515 291.162498 
L 926.511515 375.538086 
" clip-path="url(#p5975b6244e)" style="fill: none; stroke: #555555; stroke-width: 1.5; stroke-linecap: square"/>
   </g>
   <g id="line2d_17">
    <path d="M 1058.026667 492.48 
L 1058.026667 483.028152 
L 1100.111515 483.028152 
L 1100.111515 492.48 
" clip-path="url(#p5975b6244e)" style="fill: none; stroke: #555555; stroke-width: 1.5; stroke-linecap: square"/>
   </g>
   <g id="line2d_18">
    <path d="M 1079.069091 483.028152 
L 1079.069091 465.404316 
L 1142.196364 465.404316 
L 1142.196364 492.48 
" clip-path="url(#p5975b6244e)" style="fill: none; stroke: #555555; stroke-width: 1.5; stroke-linecap: square"/>
   </g>
   <g id="line2d_19">
    <path d="M 1110.632727 465.404316 
L 1110.632727 453.673304 
L 1184.281212 453.673304 
L 1184.281212 492.48 
" clip-path="url(#p5975b6244e)" style="fill: none; stroke: #555555; stroke-width: 1.5; stroke-linecap: square"/>
   </g>
   <g id="line2d_20">
    <path d="M 1015.941818 492.48 
L 1015.941818 421.95364 
L 1147.45697 421.95364 
L 1147.45697 453.673304 
" clip-path="url(#p5975b6244e)" style="fill: none; stroke: #555555; stroke-width: 1.5; stroke-linecap: square"/>
   </g>
   <g id="line2d_21">
    <path d="M 1226.366061 492.48 
L 1226.366061 473.014537 
L 1268.450909 473.014537 
L 1268.450909 492.48 
" clip-path="url(#p5975b6244e)" style="fill: none; stroke: #555555; stroke-width: 1.5; stroke-linecap: square"/>
   </g>
   <g id="line2d_22">
    <path d="M 1352.620606 492.48 
L 1352.620606 488.642743 
L 1394.705455 488.642743 
L 1394.705455 492.48 
" clip-path="url(#p5975b6244e)" style="fill: none; stroke: #555555; stroke-width: 1.5; stroke-linecap: square"/>
   </g>
   <g id="line2d_23">
    <path d="M 1310.535758 492.48 
L 1310.535758 443.308463 
L 1373.66303 443.308463 
L 1373.66303 488.642743 
" clip-path="url(#p5975b6244e)" style="fill: none; stroke: #555555; stroke-width: 1.5; stroke-linecap: square"/>
   </g>
   <g id="line2d_24">
    <path d="M 1247.408485 473.014537 
L 1247.408485 353.942238 
L 1342.099394 353.942238 
L 1342.099394 443.308463 
" clip-path="url(#p5975b6244e)" style="fill: none; stroke: #555555; stroke-width: 1.5; stroke-linecap: square"/>
   </g>
   <g id="line2d_25">
    <path d="M 1081.699394 421.95364 
L 1081.699394 317.772451 
L 1294.753939 317.772451 
L 1294.753939 353.942238 
" clip-path="url(#p5975b6244e)" style="fill: none; stroke: #555555; stroke-width: 1.5; stroke-linecap: square"/>
   </g>
   <g id="line2d_26">
    <path d="M 855.493333 291.162498 
L 855.493333 267.985634 
L 1188.226667 267.985634 
L 1188.226667 317.772451 
" clip-path="url(#p5975b6244e)" style="fill: none; stroke: #555555; stroke-width: 1.5; stroke-linecap: square"/>
   </g>
   <g id="line2d_27">
    <path d="M 418.534242 313.969504 
L 418.534242 89.28 
L 1021.86 89.28 
L 1021.86 267.985634 
" clip-path="url(#p5975b6244e)" style="fill: none; stroke: #555555; stroke-width: 1.5; stroke-linecap: square"/>
   </g>
  </g>
 </g>
 <defs>
  <clipPath id="p5975b6244e">
   <rect x="201.6" y="69.12" width="1249.92" height="443.52"/>
  </clipPath>
 </defs>
</svg>
